<?xml version="1.0" encoding="UTF-8" standalone="no"?>
<!DOCTYPE svg PUBLIC "-//W3C//DTD SVG 1.1//EN"
 "http://www.w3.org/Graphics/SVG/1.1/DTD/svg11.dtd">
<!-- Generated by graphviz version 2.36.0 (20140111.2315)
 -->
<!-- Title: models_diagram Pages: 1 -->
<svg width="531pt" height="396pt"
 viewBox="0.00 0.00 531.00 396.00" xmlns="http://www.w3.org/2000/svg" xmlns:xlink="http://www.w3.org/1999/xlink">
<g id="graph0" class="graph" transform="scale(1 1) rotate(0) translate(4 392)">
<title>models_diagram</title>
<polygon fill="white" stroke="none" points="-4,4 -4,-392 527,-392 527,4 -4,4"/>
<!-- _diagram_info -->
<g id="node1" class="node"><title>_diagram_info</title>
<text text-anchor="start" x="8" y="-284.6" font-family="Times,serif" font-size="13.00">Models diagram</text>
<text text-anchor="start" x="8" y="-270.6" font-family="Times,serif" font-size="13.00">Date: Aug 20 2014 &#45; 00:13</text>
<text text-anchor="start" x="8" y="-256.6" font-family="Times,serif" font-size="13.00">Generated by RailRoady 1.1.2</text>
<text text-anchor="start" x="8" y="-242.6" font-family="Times,serif" font-size="13.00">http://railroady.prestonlee.com</text>
</g>
<!-- Tweet -->
<g id="node2" class="node"><title>Tweet</title>
<path fill="none" stroke="black" d="M237,-1C237,-1 345,-1 345,-1 351,-1 357,-7 357,-13 357,-13 357,-95 357,-95 357,-101 351,-107 345,-107 345,-107 237,-107 237,-107 231,-107 225,-101 225,-95 225,-95 225,-13 225,-13 225,-7 231,-1 237,-1"/>
<text text-anchor="middle" x="291" y="-91.8" font-family="Times,serif" font-size="14.00">Tweet</text>
<polyline fill="none" stroke="black" points="225,-84 357,-84 "/>
<text text-anchor="start" x="233" y="-68.8" font-family="Times,serif" font-size="14.00">_id :BSON::ObjectId</text>
<text text-anchor="start" x="233" y="-53.8" font-family="Times,serif" font-size="14.00">created_at :Time</text>
<text text-anchor="start" x="233" y="-38.8" font-family="Times,serif" font-size="14.00">description :String</text>
<text text-anchor="start" x="233" y="-23.8" font-family="Times,serif" font-size="14.00">updated_at :Time</text>
<text text-anchor="start" x="233" y="-8.8" font-family="Times,serif" font-size="14.00">user_id :Object</text>
</g>
<!-- User -->
<g id="node3" class="node"><title>User</title>
<path fill="none" stroke="black" d="M212,-146.5C212,-146.5 370,-146.5 370,-146.5 376,-146.5 382,-152.5 382,-158.5 382,-158.5 382,-375.5 382,-375.5 382,-381.5 376,-387.5 370,-387.5 370,-387.5 212,-387.5 212,-387.5 206,-387.5 200,-381.5 200,-375.5 200,-375.5 200,-158.5 200,-158.5 200,-152.5 206,-146.5 212,-146.5"/>
<text text-anchor="middle" x="291" y="-372.3" font-family="Times,serif" font-size="14.00">User</text>
<polyline fill="none" stroke="black" points="200,-364.5 382,-364.5 "/>
<text text-anchor="start" x="208" y="-349.3" font-family="Times,serif" font-size="14.00">_id :BSON::ObjectId</text>
<text text-anchor="start" x="208" y="-334.3" font-family="Times,serif" font-size="14.00">current_sign_in_at :Time</text>
<text text-anchor="start" x="208" y="-319.3" font-family="Times,serif" font-size="14.00">current_sign_in_ip :String</text>
<text text-anchor="start" x="208" y="-304.3" font-family="Times,serif" font-size="14.00">email :String</text>
<text text-anchor="start" x="208" y="-289.3" font-family="Times,serif" font-size="14.00">encrypted_password :String</text>
<text text-anchor="start" x="208" y="-274.3" font-family="Times,serif" font-size="14.00">follower_ids :Array</text>
<text text-anchor="start" x="208" y="-259.3" font-family="Times,serif" font-size="14.00">following_ids :Array</text>
<text text-anchor="start" x="208" y="-244.3" font-family="Times,serif" font-size="14.00">last_sign_in_at :Time</text>
<text text-anchor="start" x="208" y="-229.3" font-family="Times,serif" font-size="14.00">last_sign_in_ip :String</text>
<text text-anchor="start" x="208" y="-214.3" font-family="Times,serif" font-size="14.00">name :String</text>
<text text-anchor="start" x="208" y="-199.3" font-family="Times,serif" font-size="14.00">remember_created_at :Time</text>
<text text-anchor="start" x="208" y="-184.3" font-family="Times,serif" font-size="14.00">reset_password_sent_at :Time</text>
<text text-anchor="start" x="208" y="-169.3" font-family="Times,serif" font-size="14.00">reset_password_token :String</text>
<text text-anchor="start" x="208" y="-154.3" font-family="Times,serif" font-size="14.00">sign_in_count :Integer</text>
</g>
<!-- User&#45;&gt;Tweet -->
<g id="edge1" class="edge"><title>User&#45;&gt;Tweet</title>
<path fill="none" stroke="#1c6966" d="M291,-138.092C291,-131.078 291,-124.203 291,-117.598"/>
<ellipse fill="none" stroke="#1c6966" cx="291" cy="-142.32" rx="4" ry="4"/>
<polygon fill="#1c6966" stroke="#1c6966" points="291,-117.46 295.5,-107.46 291,-112.46 291,-107.46 291,-107.46 291,-107.46 291,-112.46 286.5,-107.46 291,-117.46 291,-117.46"/>
</g>
<!-- User&#45;&gt;User -->
<g id="edge2" class="edge"><title>User&#45;&gt;User</title>
<path fill="none" stroke="#4a74d7" d="M391.772,-275.559C396.944,-273.442 400,-270.589 400,-267 400,-263.411 396.944,-260.558 391.772,-258.441"/>
<polygon fill="#4a74d7" stroke="#4a74d7" points="391.668,-275.587 380.826,-273.945 386.853,-276.933 382.037,-278.279 382.037,-278.279 382.037,-278.279 386.853,-276.933 383.249,-282.613 391.668,-275.587 391.668,-275.587"/>
<polygon fill="#4a74d7" stroke="#4a74d7" points="391.668,-258.413 383.249,-251.387 386.853,-257.067 382.037,-255.721 382.037,-255.721 382.037,-255.721 386.853,-257.067 380.826,-260.055 391.668,-258.413 391.668,-258.413"/>
<text text-anchor="middle" x="426.5" y="-263.3" font-family="Times,serif" font-size="14.00">following</text>
</g>
<!-- User&#45;&gt;User -->
<g id="edge3" class="edge"><title>User&#45;&gt;User</title>
<path fill="none" stroke="#b74d76" d="M392.08,-293.208C425.433,-292.535 453,-283.799 453,-267 453,-250.201 425.433,-241.465 392.08,-240.792"/>
<polygon fill="#b74d76" stroke="#b74d76" points="392.055,-293.208 382.072,-288.672 387.055,-293.19 382.055,-293.171 382.055,-293.171 382.055,-293.171 387.055,-293.19 382.039,-297.671 392.055,-293.208 392.055,-293.208"/>
<polygon fill="#b74d76" stroke="#b74d76" points="392.055,-240.792 382.039,-236.329 387.055,-240.81 382.055,-240.829 382.055,-240.829 382.055,-240.829 387.055,-240.81 382.072,-245.328 392.055,-240.792 392.055,-240.792"/>
<text text-anchor="middle" x="479" y="-263.3" font-family="Times,serif" font-size="14.00">followers</text>
</g>
</g>
</svg>
